<svg width="97" height="116" viewBox="0 0 97 116" fill="none" xmlns="http://www.w3.org/2000/svg">
<path d="M51.8 115.6C42.0667 115.6 33.4 113.933 25.8 110.6C18.2 107.267 12.2 102.733 7.8 97C3.4 91.1333 0.933334 84.6 0.4 77.4H34.2C34.6 81.2667 36.4 84.4 39.6 86.8C42.8 89.2 46.7333 90.4 51.4 90.4C55.6667 90.4 58.9333 89.6 61.2 88C63.6 86.2667 64.8 84.0667 64.8 81.4C64.8 78.2 63.1333 75.8667 59.8 74.4C56.4667 72.8 51.0667 71.0667 43.6 69.2C35.6 67.3333 28.9333 65.4 23.6 63.4C18.2667 61.2667 13.6667 58 9.8 53.6C5.93333 49.0667 4 43 4 35.4C4 29 5.73333 23.2 9.2 18C12.8 12.6667 18 8.46666 24.8 5.39999C31.7333 2.33332 39.9333 0.799991 49.4 0.799991C63.4 0.799991 74.4 4.26666 82.4 11.2C90.5333 18.1333 95.2 27.3333 96.4 38.8H64.8C64.2667 34.9333 62.5333 31.8667 59.6 29.6C56.8 27.3333 53.0667 26.2 48.4 26.2C44.4 26.2 41.3333 27 39.2 28.6C37.0667 30.0667 36 32.1333 36 34.8C36 38 37.6667 40.4 41 42C44.4667 43.6 49.8 45.2 57 46.8C65.2667 48.9333 72 51.0667 77.2 53.2C82.4 55.2 86.9333 58.5333 90.8 63.2C94.8 67.7333 96.8667 73.8667 97 81.6C97 88.1333 95.1333 94 91.4 99.2C87.8 104.267 82.5333 108.267 75.6 111.2C68.8 114.133 60.8667 115.6 51.8 115.6Z" fill="white"/>
</svg>
