<svg width="39" height="39" viewBox="0 0 39 39" fill="none" xmlns="http://www.w3.org/2000/svg">
<path d="M17.875 6.5H6.5C5.63805 6.5 4.8114 6.84241 4.2019 7.4519C3.59241 8.0614 3.25 8.88805 3.25 9.75V32.5C3.25 33.362 3.59241 34.1886 4.2019 34.7981C4.8114 35.4076 5.63805 35.75 6.5 35.75H29.25C30.112 35.75 30.9386 35.4076 31.5481 34.7981C32.1576 34.1886 32.5 33.362 32.5 32.5V21.125" stroke="black" stroke-width="3" stroke-linecap="round" stroke-linejoin="round"/>
<path d="M30.0625 4.0625C30.709 3.41603 31.5858 3.05285 32.5 3.05285C33.4142 3.05285 34.291 3.41603 34.9375 4.0625C35.584 4.70896 35.9471 5.58576 35.9471 6.5C35.9471 7.41424 35.584 8.29103 34.9375 8.9375L19.5 24.375L13 26L14.625 19.5L30.0625 4.0625Z" stroke="black" stroke-width="3" stroke-linecap="round" stroke-linejoin="round"/>
</svg>
