<svg width="32" height="32" xmlns="http://www.w3.org/2000/svg">

 <g>
  <title>background</title>
  <rect fill="none" id="canvas_background" height="402" width="582" y="-1" x="-1"/>
 </g>
 <g>
  <title>Layer 1</title>
  <path fill="#ec5252" id="XMLID_219_" d="m30.854,16.548c-0.331,0.882 -1.151,1.452 -2.09,1.452l-0.764,0l0,11c0,0.552 -0.448,1 -1,1l-6,0l0,-7c0,-2.757 -2.243,-5 -5,-5s-5,2.243 -5,5l0,7l-6,0c-0.552,0 -1,-0.448 -1,-1l0,-11l-0.765,0c-0.939,0 -1.759,-0.569 -2.09,-1.451c-0.331,-0.882 -0.088,-1.852 0.62,-2.47l11.679,-11.06c1.434,-1.357 3.679,-1.357 5.112,0l11.707,11.086c0.678,0.591 0.922,1.561 0.591,2.443z"/>
 </g>
</svg>