<?xml version="1.0" standalone="no"?>
<!DOCTYPE svg PUBLIC "-//W3C//DTD SVG 20010904//EN"
 "http://www.w3.org/TR/2001/REC-SVG-20010904/DTD/svg10.dtd">
<svg version="1.0" xmlns="http://www.w3.org/2000/svg"
 width="64.000000pt" height="64.000000pt" viewBox="0 0 64.000000 64.000000"
 preserveAspectRatio="xMidYMid meet">

<g transform="translate(0.000000,64.000000) scale(0.100000,-0.100000)"
fill="#000000" stroke="none">
<path d="M320 521 c-5 -11 -10 -28 -10 -38 0 -31 -46 -119 -74 -140 -28 -22
-34 -43 -13 -43 17 0 71 57 90 95 8 17 18 48 22 69 8 39 29 56 47 38 7 -7 6
-25 -2 -59 -24 -97 -24 -97 50 -103 l65 -5 -1 -35 c-2 -51 -23 -173 -34 -190
-7 -11 -30 -15 -97 -15 -48 0 -103 3 -121 7 -28 7 -33 5 -30 -9 4 -24 65 -35
166 -31 107 4 113 11 136 153 16 98 16 108 2 130 -14 21 -24 25 -66 25 -55 0
-55 -2 -38 69 16 70 2 101 -46 101 -25 0 -38 -6 -46 -19z"/>
<path d="M70 295 c0 -10 11 -15 35 -15 l35 0 0 -95 0 -95 -35 0 c-19 0 -35 -4
-35 -9 0 -22 78 -29 98 -9 13 13 17 192 6 222 -9 22 -104 23 -104 1z"/>
</g>
</svg>
