<?xml version="1.0" encoding="UTF-8"?>
<svg xmlns="http://www.w3.org/2000/svg" xmlns:xlink="http://www.w3.org/1999/xlink" width="24pt" height="24pt" viewBox="0 0 24 24" version="1.1">
<g id="surface107642">
<path style=" stroke:none;fill-rule:nonzero;fill:rgb(0%,0%,0%);fill-opacity:1;" d="M 9.925781 0.59375 C 5.0625 0.59375 1.113281 4.546875 1.113281 9.40625 C 1.113281 14.269531 5.0625 18.222656 9.925781 18.222656 C 11.851562 18.222656 13.628906 17.601562 15.078125 16.550781 L 21.898438 23.355469 L 23.355469 21.898438 L 16.617188 15.144531 C 17.941406 13.601562 18.738281 11.597656 18.738281 9.40625 C 18.738281 4.546875 14.789062 0.59375 9.925781 0.59375 Z M 9.925781 1.632812 C 14.226562 1.632812 17.703125 5.105469 17.703125 9.40625 C 17.703125 13.710938 14.226562 17.183594 9.925781 17.183594 C 5.625 17.183594 2.152344 13.710938 2.152344 9.40625 C 2.152344 5.105469 5.625 1.632812 9.925781 1.632812 Z M 9.925781 1.632812 "/>
</g>
</svg>
